<svg width="9" height="10" viewBox="0 0 9 10" fill="none" xmlns="http://www.w3.org/2000/svg">
<path d="M0.568359 6.05898H1.26712C1.47801 6.99054 1.92342 7.74669 2.55428 8.27399C3.20321 8.81641 4.04248 9.11172 5.00977 9.11172C6.44004 9.11172 7.77698 8.52618 8.31916 7.16863C8.384 7.01268 8.40273 6.85257 8.40273 6.72656C8.40273 6.56163 8.35015 6.41742 8.24779 6.31413C8.14535 6.21077 8.00241 6.15781 7.83984 6.15781C7.69345 6.15781 7.56623 6.19936 7.45913 6.28755C7.35432 6.37387 7.27591 6.499 7.21383 6.65419C6.84196 7.57526 6.01131 7.9332 5.01562 7.9332C3.85252 7.9332 2.95537 7.23862 2.58832 6.05898H5.60156C5.85929 6.05898 6.04727 5.85267 6.04727 5.60742C6.04727 5.34823 5.85712 5.15586 5.60156 5.15586H2.41691C2.4065 5.03144 2.40273 4.90485 2.40273 4.76953C2.40273 4.63005 2.41028 4.49398 2.41941 4.35977H5.60156C5.85929 4.35977 6.04727 4.15345 6.04727 3.9082C6.04727 3.64902 5.85712 3.45664 5.60156 3.45664H2.59666C2.97969 2.29935 3.87069 1.61172 5.00977 1.61172C5.99367 1.61172 6.82075 2.09542 7.19624 3.02547C7.25888 3.18206 7.34075 3.30717 7.44867 3.39315C7.55832 3.48051 7.68786 3.52187 7.83398 3.52187C7.99814 3.52187 8.1434 3.465 8.24778 3.35971C8.35211 3.25446 8.40859 3.10792 8.40859 2.94141C8.40859 2.81235 8.38304 2.65296 8.31916 2.49935C7.80986 1.22092 6.61562 0.433203 5.00977 0.433203C3.11746 0.433203 1.71456 1.59026 1.27374 3.45664H0.568359C0.31754 3.45664 0.128516 3.65015 0.128516 3.9082C0.128516 4.1523 0.315388 4.35977 0.568359 4.35977H1.14435C1.1341 4.49359 1.13047 4.63031 1.13047 4.76953C1.13047 4.89915 1.13407 5.02886 1.1413 5.15586H0.568359C0.31754 5.15586 0.128516 5.34937 0.128516 5.60742C0.128516 5.85152 0.315388 6.05898 0.568359 6.05898Z" fill="#FFE81B" stroke="black" stroke-width="0.2"/>
</svg>
